<svg version="1.1" viewBox="0 0 1500 1500" xmlns="http://www.w3.org/2000/svg">
 <rect width="1500" height="1500" fill="#d2721d"/>
 <path d="m147.94 676.85c-13.692 0-26.035 3.1239-37.143 9.5266-11.185 6.4027-19.864 15.197-26.267 26.382-6.4027 11.185-9.5266 23.643-9.5266 37.259 0 13.615 3.2396 25.958 9.7194 37.144 6.4798 11.224 15.39 19.979 26.691 26.382 11.185 6.3641 23.643 9.6042 37.259 9.6042 43.43 0.11571 69.388-31.705 69.272-68.115 0-4.5127-0.23157-8.3696-0.54014-11.417h-71.586v24.376h43.006c-1.7742 8.1383-6.0554 15.043-12.959 20.597-6.9812 5.5541-16.007 8.3694-27.192 8.3694-12.96 0-23.644-4.3967-32.013-13.191-8.4855-8.794-12.651-20.095-12.651-33.787s4.0885-24.993 12.343-33.787c8.1383-8.794 18.707-13.192 31.589-13.192 16.431 0 29.815 7.7142 39.959 23.104l22.294-15.891c-7.4441-10.8-16.547-19.054-27.308-24.801-10.877-5.747-22.486-8.5623-34.945-8.5623zm678.22 0.77141v142.98h6.673v-142.98zm125.7 0c-9.3726 0-16.971 7.5984-16.971 16.971 0 10.915 1.5e-4 63.1-0.0386 74.016 0 5.7084-1.0801 11.224-3.6258 16.354-5.207 10.414-14.965 14.04-25.997 11.764-8.2155-1.6585-13.23-7.0968-16.123-14.695 0-0.0386-0.0386-0.0382-0.0386-0.0769-1.89-4.9756-6.5181-8.2926-11.841-8.2926h-14.734c-0.0386 0-0.0769 0.0382-0.0769 0.0769 0.34714 4.2427 1.1186 8.4469 2.3142 12.535 3.9342 13.5 11.687 23.875 24.338 29.969 9.1797 4.397 19.517 5.6314 29.584 4.2043 13.962-1.9671 24.994-8.7166 32.592-20.712 5.207-8.1769 7.9455-17.318 8.0998-26.922 0.30856-17.935 0.26968-77.025 0.26968-95.114 0-0.0386-0.0382-0.0769-0.0769-0.0769zm254.53 0.80982v25.649h26.035v-8.0614c0-9.7197-7.869-17.588-17.589-17.588zm-963.33 0.54014v142.09h102.64v-24.376h-74.402v-35.986h63.217v-24.492h-63.217v-32.746h72.86v-24.492zm128.79 0v142.09h28.234v-87.169l38.3 77.642h18.321l38.301-77.642v87.169h28.233v-142.09h-29.93l-45.706 94.574-45.822-94.574zm218.69 1.6196c-0.57855-0.0771-39.843 33.518-39.843 33.518l123.66 109.04 123.66-109.04h0.0386s-1.7357-1.466-4.4356-3.7802h-0.04c-6.9692-5.9564-34.893-29.806-35.406-29.738-7e-3 0-6e-3 0.0154-9e-3 0.0247l-0.0293-0.0247h-167.55l-0.0212 0.0467c-4e-3 -0.0216-5e-3 -0.045-0.0174-0.0467zm710.66 26.312c-5.0872 0.0403-10.2 0.79547-15.313 2.2298-16.585 4.6284-27.693 15.197-33.402 31.435-2.7 7.7912-3.1245 15.891-3.3945 24.068 0.4628 5.1684 0.5012 10.452 1.3883 15.505 3.1628 17.781 12.612 30.933 29.506 37.992 10.568 4.397 21.561 5.0911 32.823 2.9312 19.401-3.7028 34.251-18.012 38.532-37.336 2.3528-10.723 2.5461-21.561 1.0418-32.361-2.6999-19.632-12.806-33.942-31.744-41.001-6.4002-2.3865-12.898-3.5158-19.439-3.4638zm-160.32 0.15139c-2.4775-0.0309-4.9892 0.11104-7.5348 0.41961-17.511 2.1214-30.046 10.993-37.452 26.999-3.4328 7.4826-5.0147 15.467-5.0918 23.682-0.1157 17.704-0.039 42.929-0.039 60.633l4.5124-0.0391c11.031 0 20.018-8.9479 19.98-19.979 0-9.7197-3e-4 -26.961 0.076-36.68 0.039-4.127 0.4244-8.3704 1.3115-12.382 1.5814-7.2898 5.3612-13.306 12.381-16.739 12.574-6.1712 27.462 0.11572 32.206 13.307 1.8128 5.0141 2.3142 10.259 2.3142 15.582v36.912c0 11.031 8.9486 19.979 19.98 19.979h4.6285c0-17.318 0.039-42.157-0.077-59.437-0.039-4.8984-0.5406-9.758-1.582-14.541-3.2399-14.387-10.722-25.842-24.26-32.592-6.7981-3.3845-13.922-5.0334-21.355-5.1256zm-74.493 1.7312c-9.3726 0-16.971 7.5984-16.971 16.971 0 10.915 0 31.898-0.039 42.852 0 5.7084-1.0794 11.224-3.625 16.354-5.207 10.414-14.966 14.04-25.997 11.764-8.2155-1.6585-13.23-7.0968-16.123-14.695-1.9285-5.0527-2.507-10.298-2.507-15.659v-40.576c0-9.3726-7.5984-16.971-16.971-16.971h-7.4828c0 16.315 0.0387 42.621 0 58.936 0 6.287 0.81054 12.497 2.5462 18.514 4.0499 13.962 12.188 24.569 25.61 30.547 8.4083 3.7413 17.704 4.8602 26.846 3.7802 14.657-1.6971 26.189-8.4852 34.057-20.905 5.2069-8.1769 7.9455-17.318 8.0997-26.922 0.3086-17.974 0.2705-45.976 0.2705-63.988zm358.59 1.4276c-6.2098 0-12.419-3e-4 -18.591 0.65539-15.351 1.62-26.884 9.4499-33.903 23.489-4.8213 9.6426-6.0943 20.057-6.1329 30.663-0.077 16.894-0.039 33.826 0 50.72 0 1.0028 0.077 2.0438 0.1544 3.2009h24.338v-3.9339c0-16.585-0.1161-33.209 0.077-49.794 0.077-4.8599 0.6177-9.8353 1.7748-14.502 2.7385-10.915 10.645-16.779 21.869-16.856h0.116c5.7079-0.03861 10.336-4.6672 10.336-10.376zm-217.85 0.11526v104.99c0 2.0442 1.6592 3.7026 3.7034 3.7026h20.558l-0.039-90.1c0-10.26-8.2925-18.591-18.552-18.591zm93.688 20.365c13.615-0.34714 25.611 8.987 27.308 24.647 0.1544 1.5428 0.4238 3.124 0.501 4.6669 0.1157 1.5814 0.039 3.1239 0.039 4.7053 0.077 6.287-0.4632 12.458-3.0088 18.359-5.0913 11.803-17.704 16.855-29.082 15.004-13.152-2.1599-21.754-12.574-22.409-26.266-0.3085-6.3255-0.2311-12.767 0.6945-19.015 2.0058-13.23 12.651-21.753 25.958-22.1z" fill="#fff"/>
</svg>
