<svg version="1.1" viewBox="0 0 1500 1500" xmlns="http://www.w3.org/2000/svg">
 <rect width="1500" height="1500" fill="#009cee"/>
 <path d="m966.84 749.06c0 116.26-94.249 210.51-210.51 210.51-116.26 0-210.51-94.253-210.51-210.51s94.249-210.51 210.51-210.51c116.26 0 210.51 94.249 210.51 210.51zm451.27-39.936-606.31-606.31c-27.404-27.399-71.831-27.399-99.235 0l-627.28 627.28a35.085 35.085 0 0 0 0 49.62l631.12 631.12c14.736 14.736 39.932 4.2991 39.932-16.542v-388.64c-180.92-8.5374-335.42-117.54-409.45-272.26 84.205-137.89 236.12-229.93 409.45-229.93 179.87 0 336.59 99.058 418.69 245.6h226.56c20.836 0 31.268-25.196 16.537-39.932z" fill="#fff"/>
</svg>
