<?xml version="1.0" encoding="UTF-8" standalone="no"?>
<svg
   width="1500"
   height="1500"
   viewBox="0 0 1500 1500"
   version="1.1"
   id="svg1"
   sodipodi:docname="Alborz_TV_logo.svg"
   inkscape:version="1.4 (86a8ad7, 2024-10-11)"
   xmlns:inkscape="http://www.inkscape.org/namespaces/inkscape"
   xmlns:sodipodi="http://sodipodi.sourceforge.net/DTD/sodipodi-0.dtd"
   xmlns="http://www.w3.org/2000/svg"
   xmlns:svg="http://www.w3.org/2000/svg">
  <defs
     id="defs1" />
  <sodipodi:namedview
     id="namedview1"
     pagecolor="#ffffff"
     bordercolor="#000000"
     borderopacity="0.25"
     inkscape:showpageshadow="2"
     inkscape:pageopacity="0.0"
     inkscape:pagecheckerboard="0"
     inkscape:deskcolor="#d1d1d1"
     inkscape:zoom="0.22524772"
     inkscape:cx="552.72478"
     inkscape:cy="748.06527"
     inkscape:window-width="1366"
     inkscape:window-height="697"
     inkscape:window-x="-8"
     inkscape:window-y="-8"
     inkscape:window-maximized="1"
     inkscape:current-layer="svg1" />
  <rect
     style="fill:#666666;fill-opacity:1;stroke:none;stroke-width:2.45713"
     id="Background"
     width="1500"
     height="1500"
     x="0"
     y="0" />
  <path
     d="m 94.955984,894.04018 c -26.607979,-26.60797 -26.607979,-69.73816 0,-96.34613 L 326.1754,566.47464 c 26.60798,-26.60798 69.73816,-26.60798 96.34614,0 26.60363,26.60362 26.60363,69.73816 0,96.34179 L 191.29777,894.04018 c -26.59927,26.60363 -69.73816,26.60363 -96.341786,0 z M 1173.8203,1000.6985 1405.044,769.47478 c 26.608,-26.60797 26.608,-69.73816 0,-96.34177 -26.6036,-26.60798 -69.7382,-26.60364 -96.3417,0 l -231.2238,231.22376 c -26.608,26.59928 -26.608,69.7338 0,96.34173 26.6036,26.6037 69.7381,26.6037 96.3418,0 z M 1013.8589,897.04502 1149.6597,761.24851 c 26.6036,-26.60797 26.6036,-69.74249 0,-96.34613 -26.608,-26.60362 -69.7426,-26.59928 -96.3462,0 L 931.83135,786.38892 c -29.81313,29.80878 -78.14733,29.80878 -107.9561,0 L 716.8772,679.39089 c -62.34366,-62.34803 -163.42786,-62.34367 -225.77588,0 L 307.95046,862.5461 c -26.60798,26.60798 -26.60798,69.73816 0,96.34178 26.60797,26.60802 69.73816,26.60802 96.34178,0 L 550.01339,813.16674 c 29.80877,-29.80877 78.14297,-29.80877 107.9561,0 l 83.87393,83.87392 c 75.11636,75.12072 196.90339,75.12072 272.01548,0 z M 529.85491,401.61403 c -46.96679,0 -85.04102,38.07424 -85.04102,85.04537 0,46.97114 38.07423,85.04102 85.04102,85.04102 46.96678,0 85.04536,-38.07422 85.04536,-85.04102 0,-46.96677 -38.07423,-85.04537 -85.04536,-85.04537 z m 62.97076,484.22166 c -58.68998,0 -106.27079,47.58083 -106.27079,106.27512 0,58.69439 47.57647,106.27519 106.27514,106.27519 58.69869,0 106.27514,-47.5808 106.27514,-106.27518 0,-58.69429 -47.58081,-106.27512 -106.27514,-106.27512 z"
     fill="#666666"
     id="Content"
     style="stroke-width:4.35482;fill:#ffffff;fill-opacity:1" />
</svg>
