<svg version="1.1" viewBox="0 0 1500 1500" xmlns="http://www.w3.org/2000/svg">
 <rect width="1500" height="1500" fill="#666"/>
 <path d="m94.956 894.04c-26.608-26.608-26.608-69.738 0-96.346l231.22-231.22c26.608-26.608 69.738-26.608 96.346 0 26.604 26.604 26.604 69.738 0 96.342l-231.22 231.22c-26.599 26.604-69.738 26.604-96.342 0zm1078.9 106.66 231.22-231.22c26.608-26.608 26.608-69.738 0-96.342-26.604-26.608-69.738-26.604-96.342 0l-231.22 231.22c-26.608 26.599-26.608 69.734 0 96.342 26.604 26.604 69.738 26.604 96.342 0zm-159.96-103.65 135.8-135.8c26.604-26.608 26.604-69.742 0-96.346-26.608-26.604-69.743-26.599-96.346 0l-121.48 121.49c-29.813 29.809-78.147 29.809-107.96 0l-107-107c-62.344-62.348-163.43-62.344-225.78 0l-183.15 183.16c-26.608 26.608-26.608 69.738 0 96.342 26.608 26.608 69.738 26.608 96.342 0l145.72-145.72c29.809-29.809 78.143-29.809 107.96 0l83.874 83.874c75.116 75.121 196.9 75.121 272.02 0zm-484-495.43c-46.967 0-85.041 38.074-85.041 85.045 0 46.971 38.074 85.041 85.041 85.041 46.967 0 85.045-38.074 85.045-85.041 0-46.967-38.074-85.045-85.045-85.045zm62.971 484.22c-58.69 0-106.27 47.581-106.27 106.28 0 58.694 47.576 106.28 106.28 106.28 58.699 0 106.28-47.581 106.28-106.28 0-58.694-47.581-106.28-106.28-106.28z" fill="#fff"/>
</svg>
