<?xml version="1.0" encoding="UTF-8" standalone="no"?>
<!-- Generator: Adobe Illustrator 27.7.0, SVG Export Plug-In . SVG Version: 6.00 Build 0)  -->

<svg
   version="1.1"
   id="Layer_1"
   x="0px"
   y="0px"
   viewBox="0 0 1500 1500"
   xml:space="preserve"
   sodipodi:docname="iribtv3.svg"
   width="1500"
   height="1500"
   inkscape:version="1.4 (86a8ad7, 2024-10-11)"
   inkscape:export-filename="iribtv3.png"
   inkscape:export-xdpi="96"
   inkscape:export-ydpi="96"
   xmlns:inkscape="http://www.inkscape.org/namespaces/inkscape"
   xmlns:sodipodi="http://sodipodi.sourceforge.net/DTD/sodipodi-0.dtd"
   xmlns="http://www.w3.org/2000/svg"
   xmlns:svg="http://www.w3.org/2000/svg"><defs
   id="defs3" /><sodipodi:namedview
   id="namedview3"
   pagecolor="#ffffff"
   bordercolor="#000000"
   borderopacity="0.25"
   inkscape:showpageshadow="2"
   inkscape:pageopacity="0.0"
   inkscape:pagecheckerboard="0"
   inkscape:deskcolor="#d1d1d1"
   inkscape:zoom="0.11285714"
   inkscape:cx="571.519"
   inkscape:cy="1750"
   inkscape:window-width="1366"
   inkscape:window-height="697"
   inkscape:window-x="-8"
   inkscape:window-y="-8"
   inkscape:window-maximized="1"
   inkscape:current-layer="Content" />
<style
   type="text/css"
   id="style1">
	.st0{fill:#D81B60;}
</style>
<rect
   id="Background"
   class="cls-1"
   x="0"
   y="0"
   width="1500"
   height="1500"
   style="display:inline;fill:#d81b60;fill-opacity:1" /><g
   id="Content"
   transform="matrix(0.38572531,0,0,0.38572531,74.999994,74.981282)">
	<path
   class="st0"
   d="m 1036.5,793.4 h 28.8 c 79.8,4.8 149.5,32 209.1,81.5 122.1,101.4 158.7,272.5 93.4,414.8 -6,13 -13.8,27.8 -23.4,44.4 -228.3,394.7 -455.7,788.7 -682.1,1181.9 -10.1,17.6 -19,31.8 -26.6,42.6 -62.8,89 -163.4,142.9 -272.5,147.5 -77.6,3.3 -157.6,-21.6 -217.6,-65.5 C 56.3,2575.4 7.8,2485.6 0,2371.2 v -30.8 c 3.3,-57.6 18.7,-110.3 46.3,-158.2 L 745.6,970.5 C 807,864.2 913.1,800.4 1036.5,793.4 Z"
   id="path1"
   style="fill:#ffffff;fill-opacity:1"
   sodipodi:nodetypes="cccccccccccccc" />
	<path
   class="st0"
   d="m 2086.5,793.4 h 28.4 c 97.8,6 178.9,43.9 243.3,113.7 102.8,111.4 120.4,280.5 44.9,411.3 -233.2,404 -466.3,808 -699.5,1212.1 -81.9,141.8 -252.7,210.4 -410.6,159.2 -212,-68.7 -307.9,-314.8 -196.1,-508.5 232.4,-402.6 461,-799 686,-1189 12.8,-22.1 22.8,-38.3 29.9,-48.6 64,-91.3 160.6,-143.2 273.7,-150.2 z"
   id="path2"
   style="fill:#ffffff;fill-opacity:1" />
	<path
   class="st0"
   d="m 3136.4,793.4 h 28.4 c 186.6,11 326.8,154 335.1,340.7 v 20.6 c -2.5,59.3 -17.9,113.5 -46.3,162.7 -232.2,402.4 -464.5,804.8 -696.7,1207.1 -30.1,52.1 -66.8,92.6 -110.4,121.4 -117.9,78.2 -266.9,81.3 -385.9,4.7 -156.8,-101 -207.6,-307.1 -113.4,-470.4 232.7,-403.2 465.4,-806.4 698.1,-1209.6 61.2,-105.8 167.8,-170.8 291.1,-177.2 z"
   id="path3"
   style="fill:#ffffff;fill-opacity:1" />
</g>
</svg>
