<svg version="1.1" viewBox="0 0 1500 1500" xmlns="http://www.w3.org/2000/svg">
 <rect width="1500" height="1500" fill="#d81b60"/>
 <path d="m474.8 381.02c-47.598 2.7001-88.524 27.309-112.21 68.312l-269.74 467.38c-10.646 18.476-16.586 38.804-17.859 61.022v11.88c3.0087 44.127 21.716 78.765 56.161 103.91 23.144 16.933 54.001 26.538 83.934 25.265 42.083-1.7742 80.887-22.565 105.11-56.894 2.9315-4.1659 6.3651-9.6429 10.261-16.432 87.328-151.67 175.04-303.64 263.1-455.89 3.703-6.403 6.7118-12.112 9.0261-17.126 25.188-54.889 11.07-120.89-36.027-160-22.989-19.093-49.874-29.585-80.655-31.437zm405.01 0c-43.626 2.7001-80.886 22.719-105.57 57.936-2.7386 3.973-6.596 10.222-11.533 18.746-86.788 150.43-174.96 303.33-264.61 458.63-43.124 74.715-6.1332 169.64 75.641 196.14 60.906 19.749 126.79-6.7113 158.38-61.407 89.951-155.87 179.86-311.7 269.81-467.54 29.122-50.453 22.333-115.68-17.319-158.65-24.841-26.924-56.123-41.542-93.847-43.857zm404.97 0c-47.56 2.4686-88.678 27.54-112.28 68.35l-269.28 466.57c-36.335 62.989-16.74 142.49 43.741 181.45 45.901 29.546 103.37 28.351 148.85-1.8126 16.818-11.109 30.974-26.731 42.584-46.827 89.565-155.18 179.17-310.39 268.73-465.61 10.954-18.978 16.895-39.884 17.859-62.758v-7.9458c-3.2015-72.015-57.28-127.17-129.26-131.42z" fill="#fff"/>
</svg>
