<svg version="1.1" viewBox="0 0 1500 1500" xmlns="http://www.w3.org/2000/svg">
 <rect width="1500" height="1500" fill="#f9a400"/>
 <path d="m370.59 930.91c-2.163-2.4333-4.2873-4.6736-6.4116-6.7593-16.879-16.802-32.869-32.869-48.049-48.203-10.081-10.197-19.776-20.587-30.011-30.706-16.802-16.57-33.178-33.062-49.092-49.516-13.634-14.098-27.81-27.616-41.289-41.792-7.4931-7.8794-14.832-15.527-22.634-22.904-13.016-12.283-26.226-25.724-39.706-40.285-10.931-11.858-20.085-23.059-27.423-33.603-18.308-26.303-29.509-57.55-30.822-89.608-1.2746-30.668 5.3302-59.288 19.814-85.901 8.1497-14.948 18.887-29.316 32.251-43.028 3.3217-3.3989 6.5275-6.7206 9.6561-9.9651 16.145-16.763 32.599-33.217 48.898-50.173 4.4418-4.6349 8.845-9.1153 13.21-13.48 24.951-24.913 49.632-49.594 74.082-74.082 9.0381-9.0767 18.656-18.038 28.041-27.307 22.209-21.977 37.929-37.272 47.122-45.886 7.9566-7.4159 16.415-14.175 25.453-20.278 20.973-14.175 43.993-22.904 69.099-26.265 2.4333-0.309 4.8667-0.57937 7.3-0.73386 3.2058-0.19312 6.2958-0.69524 9.5788-0.69524 28.737 0.0386 55.774 6.9524 81.188 20.703 13.21 7.1455 25.26 15.488 36.191 24.99 7.6476 6.682 15.681 13.982 24.024 21.861 14.098 13.325 28.157 26.728 42.139 40.247 0.309 0.27037 0.65661 0.38625 1.0429 0.27037 0.92698-0.27037 1.7381-0.77248 2.4333-1.4677 10.004-10.622 20.162-21.282 30.475-32.02 3.0127-3.1286 5.8709-6.2185 8.6132-9.2312 5.2915-5.8709 10.892-11.51 16.377-17.033 14.407-14.6 29.857-27.192 46.272-37.813 21.359-13.828 46.851-24.217 71.532-26.303 2.3175-0.19312 4.5577-0.42487 6.682-0.69524 2.2788-0.27037 4.5963-0.42487 6.9138-0.38624 13.403 0.11587 26.033 1.6995 37.968 4.828 29.123 7.609 56.005 23.136 78.755 42.216 6.2958 5.2915 12.669 10.622 18.462 16.415l208.65 208.65c10.467 10.467 21.243 20.394 31.672 30.822l144.49 144.49c15.488 15.488 30.475 32.367 42.216 50.405 15.334 23.599 24.642 49.207 28.003 76.747 0.309 2.3947 0.4635 4.7894 0.5021 7.1841 0.039 3.2444 0.7725 6.373 0.7339 9.5402-0.077 5.0598-0.5021 10.158-0.8884 15.257-0.7339 9.5402-2.7037 19.93-5.9095 31.208-6.7979 23.677-19.544 45.886-35.766 64.194-5.9094 6.682-11.587 12.707-16.956 18.115-14.755 14.754-29.432 29.432-44.032 44.07-8.4201 8.4587-16.956 17.767-25.762 26.574-75.163 75.086-150.36 150.25-225.64 225.57-2.7809 2.781-5.9481 5.2529-8.6518 7.918-14.446 14.33-29.664 29.509-45.654 45.538-7.918 7.9566-16.724 15.913-24.604 23.87-11.124 11.278-21.823 21.861-32.136 31.749-27.578 26.419-61.915 44.727-99.844 49.207-4.828 0.5793-9.3857 0.3476-14.098 0.9656-2.2788 0.2704-4.5577 0.2318-6.7979-0.1159-3.9783-0.6179-8.1497-0.2318-12.398-0.6952-22.364-2.5106-43.607-9.3085-63.73-20.432-16.608-9.1926-31.054-20.432-44.959-33.333-21.359-19.892-45.075-41.598-71.107-65.159-0.23175-0.2318-0.46349-0.2318-0.69524 0-1.7767 1.5835-3.3603 3.1284-4.7122 4.6349-21.243 23.561-42.603 47.74-64.039 72.459-7.8407 9.0381-16.724 17.381-26.651 25.029-25.917 19.93-54.847 31.788-86.828 35.534-5.2143 0.618-10.776 0.8884-16.724 0.8111-7.4159-0.1158-14.484 0.1931-21.977-0.6179-39.32-4.2102-76.669-21.205-104.4-48.744-4.1328-4.1328-8.4974-8.8064-13.055-14.136-15.45-17.922-31.711-35.148-45.19-54.383-13.673-19.505-22.634-43.414-26.612-66.627-1.0429-6.1798-1.7767-12.592-2.0857-19.158-0.30899-5.9095-0.11587-12.321 0.54075-19.274 2.4333-25.183 10.969-48.976 25.569-71.378 6.1026-9.3858 13.094-18.462 20.973-27.23 21.668-24.14 43.298-46.156 68.056-71.146 7.3386-7.4159 14.523-15.488 22.325-22.827 0.23175-0.19314 0.23175-0.42489 0.0386-0.69525zm111.35-430.47c10.081 2.5878 19.003 7.2614 26.728 14.059 14.832 13.094 29.47 28.157 44.379 42.332 19.93 18.887 39.126 38.702 59.25 58.864 10.197 10.197 19.119 19.892 30.127 31.247 12.901 13.325 27.192 28.698 42.834 46.117 5.6005 6.2571 10.583 14.098 14.87 23.522 2.3947 5.2143 4.2487 11.201 5.0984 16.802 0.34762 2.3947 0.69525 4.9439 1.0042 7.609 0.34763 2.9354 0.38625 5.7936 0.15451 8.536-0.77249 9.5788-2.5492 17.844-5.3302 24.758-3.9783 9.8106-8.6905 18.308-14.252 25.569-8.4587 11.085-18.231 22.286-29.277 33.565-26.11 26.689-48.358 49.825-66.82 69.408-4.4418 4.7121-8.7677 9.2312-13.016 13.673-10.776 11.201-22.557 23.561-35.303 37.002-24.488 25.878-49.014 51.718-73.579 77.442-8.4974 8.8836-17.304 18.269-26.419 28.157-9.6175 10.428-19.621 20.51-29.123 31.286-10.12 11.433-17.458 26.458-17.342 41.753 0.15449 21.436 17.381 43.684 37.89 49.903 3.399 1.0428 7.1069 1.8153 11.124 2.3174 3.6307 0.4635 7.3772 0.4249 11.278-0.1159 14.059-1.9698 26.574-7.609 37.543-16.956 3.8624-3.2832 6.7979-5.9482 8.8064-7.9567 61.606-61.683 123.25-123.33 184.89-184.97 10.815-10.815 22.441-21.823 33.101-32.444 50.366-50.289 100.89-100.77 151.56-151.41 11.047-11.047 23.638-26.033 25.338-42.216 0.57937-5.6778 0.19312-11.162-1.236-16.377-2.7423-10.081-9.1153-20.587-15.604-28.775-7.3-9.2312-15.141-18.038-23.445-26.342-88.373-88.334-176.71-176.67-265.08-265-4.2487-4.2487-8.7677-8.6905-13.48-13.21-11.896-11.433-25.685-25.067-41.289-40.903-10.969-11.124-23.252-20.587-38.354-24.642-5.3302-1.4291-10.274-2.0085-14.832-1.6995-19.235 1.236-34.221 12.089-47.431 25.647-3.8238 3.9397-8.4974 7.8021-12.051 11.317l-40.053 40.053c-4.3259 4.3259-8.845 8.6905-13.596 13.094-9.463 8.8064-18.269 18.849-27.114 27.616-13.132 13.016-25.453 25.453-37.079 37.35-1.5836 1.6222-3.1672 3.2831-4.7508 4.9053-10.274 10.622-20.278 21.012-29.972 31.208-9.3471 9.772-18.733 19.08-27.462 29.509-6.6434 7.9566-11.549 15.836-14.677 23.638-3.9783 9.8878-4.0942 19.698-0.38624 29.47 3.901 10.235 10.931 19.814 18.424 27.81 11.278 12.051 22.518 23.986 34.492 35.187 15.875 14.793 30.552 30.822 46.542 45.654 8.1884 7.5704 15.952 15.604 24.102 23.484 20.587 19.892 41.289 39.899 62.069 60.022 3.7466 3.6307 8.1111 7.4545 11.471 10.892 6.4889 6.6434 12.785 12.63 18.81 17.96 2.2788 2.0085 4.6736 3.4762 7.2614 4.4418 0.61799 0.23174 1.3132 0.0772 1.7767-0.38624 15.334-14.639 30.359-29.277 45.075-43.877 9.6561-9.5788 19.698-19.119 29.355-28.814 0.27038-0.27037 0.27038-0.69525 0-0.92699-4.9825-5.2143-9.8106-10.66-14.754-15.759-34.994-35.921-68.906-71.532-101.78-106.8-10.853-11.665-22.827-25.569-25.338-41.946-1.545-10.12-0.57936-19.544 2.8582-28.312 5.446-13.866 15.025-26.303 25.608-37.234 12.398-12.746 26.342-22.634 43.143-26.419 1.545-0.34762 3.1286-0.57936 4.7122-0.65662 2.8968-0.19311 5.8709-0.9656 8.8064-0.50211 3.2831 0.57937 6.5275 0.65661 9.7333 1.4677zm766.93 248.24c4.1714-24.642-14.677-47.083-30.861-62.996-12.244-12.012-24.179-24.063-35.766-36.114-4.2874-4.4804-8.6905-8.9608-13.21-13.441-66.82-66.82-133.83-133.83-201.04-201-4.4804-4.4804-8.8836-8.9222-13.21-13.441-14.677-15.179-29.2-29.857-43.607-44.07-9.9265-9.8492-18.81-18.192-26.651-24.99-10.931-9.5402-21.552-17.072-36.075-20.278-5.1757-1.1587-9.9265-1.3905-14.214-0.73386-11.356 1.7381-21.166 5.4074-29.393 11.008-15.875 10.815-37.49 18.682-49.71 34.801-1.5818 2.0866-2.8075 4.8024-2.5996 7.4124 0.0463 0.58161 0.93085 7.9741 16.543 22.406 17.111 16.145 33.719 32.135 50.212 47.778 14.909 14.137 29.857 28.389 44.882 42.68 4.4032 4.2101 8.7291 8.3815 12.939 12.592 3.2444 3.2444 7.0683 6.5275 10.583 9.9265 19.119 18.462 38.199 36.925 57.28 55.349 4.828 4.6735 9.3471 9.0767 13.48 13.21 15.334 15.257 30.822 30.745 46.542 46.426 12.167 12.167 24.063 24.99 35.303 37.581 4.1328 4.5963 8.1497 9.3857 12.089 14.33 13.016 16.338 23.87 38.508 23.097 59.636-0.1546 4.0556 0.077 8.0725-0.5407 12.051-4.2874 27.578-20.973 48.898-40.169 68.133-10.622 10.622-21.321 21.321-32.136 32.097-9.7719 9.772-20.394 19.698-30.166 29.509-4.6736 4.7121-9.154 9.1153-13.48 13.248-13.596 13.094-26.767 26.535-40.44 39.513-7.1069 6.7206-14.098 13.557-20.973 20.548-10.429 10.544-21.243 20.471-31.865 31.17-11.008 11.124-22.248 21.514-33.256 32.56-12.089 12.128-24.488 23.677-36.577 35.805-3.6693 3.708-8.227 8.0725-13.596 13.132-6.6434 6.257-13.673 13.21-21.089 20.857-0.42487 0.4249-0.46349 1.0815-0.1545 1.5836 9.0767 14.716 18.462 28.659 29.972 40.015 7.918 7.8021 16.917 14.136 27.539 17.42 23.754 7.3386 48.705-8.9222 65.661-23.986 9.5402-8.4973 19.158-17.767 28.814-27.848 4.3259-4.4804 8.7291-8.9995 13.21-13.48 97.333-97.372 195.28-195.32 293.85-293.82 12.669-12.746 25.685-28.428 28.775-46.581z" fill="#fff"/>
</svg>
