<svg version="1.1" viewBox="0 0 1500 1500" xmlns="http://www.w3.org/2000/svg">
 <rect width="1500" height="1500" fill="#f8163a"/>
 <path d="m233.12 597.63c-21.96 0-42.03 2.6091-61.83 10.619-56.251 22.68-94.681 74.342-96.211 135.63-0.36 14.31 0.45162 26.459 2.4317 36.36 11.97 59.941 58.59 107.28 119.07 119.25 9.7201 1.89 23.131 2.879 39.961 2.879 343.89-0.18 687.43-0.18 1030.8 0 13.14 0 23.219-0.539 30.51-1.709 68.131-10.71 124.2-69.212 126.9-139.14v-0.17968c0.63-14.4 0.089-27.27-1.5313-38.431-2.3401-16.02-8.0094-31.951-17.189-47.792-27.18-47.071-76.951-77.489-131.67-77.489-353.89 0.27-700.84 0.27-1041.2 0zm830.31 46.811c6.5251 0.0562 13.23 0.34868 20.115 0.88868 0.99 0.09 1.7989 0.8108 1.7989 1.8008 0.72 10.98-0.27 21.87 1.08 32.76 0.18 1.44 0.9899 2.25 2.3399 2.25h36.271c0.81 0 1.5293 0.62947 1.5293 1.4395 0.81 12.15 0.81 23.76 0 34.83-0.09 0.90002-0.9006 1.6191-1.8906 1.6191-12.87-0.54001-25.468-0.54001-37.799 0-0.9 0.09-1.3515 0.54157-1.3515 1.3516-0.5401 16.29-0.5401 32.31 0 47.97 0.9 29.43 24.841 31.32 47.342 27h0.2695c0.63 0 1.17 0.53978 1.17 1.2598v34.74c0 1.53-0.7201 2.3414-2.1601 2.6114-34.29 6.3001-74.972-4.3202-88.022-40.411-2.52-6.9301-3.6898-18.99-3.5098-36.091 0.27-21.6 0.4508-43.832 0.6308-66.693 0-14.85-0.9-29.25 0-43.651 0.1801-1.71 1.5304-3.1485 3.1504-3.1485 6.1651-0.405 12.51-0.58555 19.035-0.5293zm-323.69 21.297c10.986 0.35297 21.488 2.1152 30.33 4.9728 19.8 6.3901 36.901 20.34 41.942 40.591 1.35 5.3101 1.7989 12.599 1.7989 21.779-0.27 23.13-0.44851 46.89 0.27149 70.11 0.18 8.2801-9e-4 17.011-0.54101 26.461 0 0.99002-0.81061 1.8887-1.8907 1.8887-12.96 0.72001-26.099 0.72001-39.42 0-0.81001-0.09-1.2595-0.44993-1.4395-1.1699-0.81002-3.42-1.1699-6.7484-1.1699-9.9883 0.45-34.74 0.45-65.071 0-90.991-0.36001-25.47-30.061-29.43-48.692-24.57v0.17969c-13.05 3.33-19.709 12.149-19.709 26.279-0.18 27.99-0.18163 55.803-0.18163 83.523 0 5.1301-0.17907 10.44-0.53908 15.93-0.09 0.99001-0.62929 1.4395-1.5293 1.4395l-38.431-0.17968c-2.34-0.09-4.0488-2.0704-4.0488-4.3204 0.9-29.79 0.98955-59.401 0.26952-88.921-0.27-12.78 0.62904-22.679 2.789-29.79 9.9226-32.67 47.234-44.282 80.192-43.223zm-468.26 0.4004c18.745 0.3999 36.858 6.2696 50.471 20.051v0.0898c0.72001 0.72001 2.0708 0.72001 2.8808 0 20.34-19.98 49.772-23.489 76.862-17.549 29.25 6.3901 51.21 27.18 50.85 58.591-0.45001 31.41-0.4497 65.34-0.1797 101.79 0 2.16-1.6193 3.7813-3.7793 3.7813h-37.891c-0.81002 0-1.6211-0.63141-1.6211-1.4415-0.63-5.4901-0.80859-10.889-0.80859-16.199 0.27-28.89 0.27-55.98 0-81.27-0.09-12.42-4.3209-24.031-16.291-27.811-9.4501-2.97-18.991-3.2408-28.711-0.72072-11.34 2.97-17.099 10.71-17.369 23.4-0.54001 27.72-0.62954 55.081-0.26953 81.991 0.09 6.8401-0.18055 13.771-0.81056 20.791 0 0.81001-0.53959 1.3497-1.3497 1.3497h-39.601c-0.99002 0-1.8903-0.7208-2.0703-1.8008-0.36001-3.06-0.53906-6.1197-0.53906-9.1801 0.36-34.11 0.36-64.441 0-90.901-0.27001-21.15-15.39-28.26-34.56-27.269-18.45 0.99001-28.08 9.0901-28.08 28.08v98.371c0 1.44-1.0795 2.6114-2.5195 2.6114h-40.051c-0.81002 0-1.2598 31.23-1.2598-1.2598s-2e-3 -67.142-0.18164-103.86c-0.09-28.53 16.201-48.96 43.292-56.97 10.868-3.1725 22.343-4.9021 33.59-4.6622zm969.85 0.12891c15.113 0.59169 30.089 4.6778 43.118 12.272 31.5 18.45 45.992 54.813 39.692 90.091-8.5502 48.061-47.701 73.98-95.041 70.47-37.711-2.88-69.211-27.811-76.861-64.982v0.0918c-6.0301-29.25-0.089-59.942 20.791-81.812 17.55-18.394 43.115-27.119 68.303-26.133zm-701.41 0.18945c14.456-0.67501 28.385 0.20282 41.795 2.6329 34.38 6.2101 46.35 30.51 46.35 62.911-0.09 30.15 0.0894 60.3 0.35938 90.451 0 2.34-0.35828 5.0416-0.98831 8.1016-0.18 0.72002-0.63156 1.1697-1.3516 1.3497-2.16 0.54-4.229 0.81055-6.209 0.81055-26.19 0.18-52.11 0.17969-77.49 0.17969-11.43 0-22.411-1.1699-32.941-3.42-17.73-3.87-27.9-14.132-30.51-30.692-2.16-13.68-1.5312-26.1 1.7989-37.261 12.15-40.771 70.292-36.451 101.43-28.35 0.99002 0.27 1.5293-0.0901 1.5293-1.0801v-0.0898h-0.0898c0.99002-17.01-6.5696-26.189-22.679-27.45-22.95-1.89-45.091-0.99083-66.151 2.6992-0.90001 0.18001-1.3497-0.18008-1.3497-1.0801v-31.141c0-0.90002 0.62929-1.6187 1.5293-1.8887 15.525-3.78 30.51-6.0087 44.967-6.6837zm392.23 1.9766c35.733 1.4954 67.967 22.78 79.229 58.978 3.24 10.17 4.4092 21.33 3.7792 33.66-1.35 25.65-12.78 48.961-33.48 63.991-31.59 22.86-76.321 21.869-107.37 0.35937-38.431-26.64-45.359-86.851-17.548-123.57h-0.0898c12.24-16.2 29.07-26.641 50.401-31.231 8.4039-1.8225 16.836-2.5306 25.082-2.1856zm306.25 35.325a49.231 45.451 89.7 0 0-45.192 49.469 49.231 45.451 89.7 0 0 45.707 48.991 49.231 45.451 89.7 0 0 45.191-49.467 49.231 45.451 89.7 0 0-45.707-48.993zm-312.65 2.0879a49.231 45.541 89.7 0 0-45.281 49.467 49.231 45.541 89.7 0 0 45.797 48.993 49.231 45.541 89.7 0 0 45.283-49.469 49.231 45.541 89.7 0 0-45.799-48.991zm-381.48 59.274c-10.53-0.09-19.08 6.1213-19.17 13.951v4.5001c-0.09 7.8301 8.3703 14.311 18.9 14.311l40.231 0.35939c2.16 0 3.959-1.7111 3.959-3.8711l0.18164-24.93c0-2.16-1.7111-3.9591-3.8711-3.9591l-40.231-0.36133z" fill="#fff"/>
</svg>
