<?xml version="1.0" encoding="UTF-8" standalone="no"?>
<svg
   version="1.1"
   viewBox="0 0 1500 1500"
   id="svg2"
   sodipodi:docname="manoto.svg"
   inkscape:version="1.4 (86a8ad7, 2024-10-11)"
   inkscape:export-filename="manoto.png"
   inkscape:export-xdpi="96"
   inkscape:export-ydpi="96"
   xmlns:inkscape="http://www.inkscape.org/namespaces/inkscape"
   xmlns:sodipodi="http://sodipodi.sourceforge.net/DTD/sodipodi-0.dtd"
   xmlns="http://www.w3.org/2000/svg"
   xmlns:svg="http://www.w3.org/2000/svg">
  <sodipodi:namedview
     id="namedview2"
     pagecolor="#ffffff"
     bordercolor="#000000"
     borderopacity="0.25"
     inkscape:showpageshadow="2"
     inkscape:pageopacity="0.0"
     inkscape:pagecheckerboard="0"
     inkscape:deskcolor="#d1d1d1"
     inkscape:zoom="0.36866667"
     inkscape:cx="749.99999"
     inkscape:cy="749.99999"
     inkscape:window-width="1366"
     inkscape:window-height="697"
     inkscape:window-x="-8"
     inkscape:window-y="-8"
     inkscape:window-maximized="1"
     inkscape:current-layer="svg2"
     showguides="true" />
  <defs
     id="defs1">
    <style
       id="style1">
      .cls-1 {
        fill: #f8163a;
      }

      .cls-2 {
        fill: #fff;
      }
    </style>
  </defs>
  <!-- Generator: Adobe Illustrator 28.7.1, SVG Export Plug-In . SVG Version: 1.2.0 Build 142)  -->
  <rect
     id="Background"
     class="cls-1"
     x="0"
     y="0"
     width="1500"
     height="1500"
     style="display:inline" />
  <g
     id="Content"
     transform="matrix(0.90001381,0,0,0.90000004,74.903076,75.17997)"
     style="display:inline">
    <path
       class="cls-2"
       d="m 1499.8,762.6 c -3,77.7 -65.3,142.7 -141,154.6 -8.1,1.3 -19.3,1.9 -33.9,1.9 -381.5,-0.2 -763.2,-0.2 -1145.3,0 -18.7,0 -33.6,-1.1 -44.4,-3.2 C 68,902.6 16.2,850 2.9,783.4 0.7,772.4 -0.2,758.9 0.2,743 1.9,674.9 44.6,617.5 107.1,592.3 c 22,-8.9 44.3,-11.8 68.7,-11.8 378.2,0.3 763.7,0.3 1156.9,0 60.8,0 116.1,33.8 146.3,86.1 10.2,17.6 16.5,35.3 19.1,53.1 1.8,12.4 2.4,26.7 1.7,42.7 z m -375.4,-46.1 c 13.7,-0.6 27.7,-0.6 42,0 1.1,0 2,-0.8 2.1,-1.8 0.9,-12.3 0.9,-25.2 0,-38.7 0,-0.9 -0.8,-1.6 -1.7,-1.6 h -40.3 c -1.5,0 -2.4,-0.9 -2.6,-2.5 -1.5,-12.1 -0.4,-24.2 -1.2,-36.4 0,-1.1 -0.9,-1.9 -2,-2 -15.3,-1.2 -29.8,-1.3 -43.5,-0.4 -1.8,0 -3.3,1.6 -3.5,3.5 -1,16 0,32 0,48.5 -0.2,25.4 -0.4,50.1 -0.7,74.1 -0.2,19 1.1,32.4 3.9,40.1 14.5,40.1 59.7,51.9 97.8,44.9 1.6,-0.3 2.4,-1.2 2.4,-2.9 v -38.6 c 0,-0.8 -0.6,-1.4 -1.3,-1.4 -0.7,0 -0.2,0 -0.3,0 -25,4.8 -51.6,2.7 -52.6,-30 -0.6,-17.4 -0.6,-35.2 0,-53.3 0,-0.9 0.5,-1.4 1.5,-1.5 z M 717.8,699.6 c 20.7,-5.4 53.7,-1 54.1,27.3 0.5,28.8 0.5,62.5 0,101.1 0,3.6 0.4,7.3 1.3,11.1 0.2,0.8 0.7,1.2 1.6,1.3 14.8,0.8 29.4,0.8 43.8,0 1.2,0 2.1,-1 2.1,-2.1 0.6,-10.5 0.8,-20.2 0.6,-29.4 -0.8,-25.8 -0.6,-52.2 -0.3,-77.9 0,-10.2 -0.5,-18.3 -2,-24.2 -5.6,-22.5 -24.6,-38 -46.6,-45.1 -39.3,-12.7 -108.1,-5.9 -122.8,42.5 -2.4,7.9 -3.4,18.9 -3.1,33.1 0.8,32.8 0.7,65.7 -0.3,98.8 0,2.5 1.9,4.7 4.5,4.8 v 0 l 42.7,0.2 c 1,0 1.6,-0.5 1.7,-1.6 0.4,-6.1 0.6,-12 0.6,-17.7 0,-30.8 0,-61.7 0.2,-92.8 0,-15.7 7.4,-25.5 21.9,-29.2 z M 274.5,678.9 c -24.2,-24.5 -61.2,-26.5 -93.4,-17.1 -30.1,8.9 -48.2,31.6 -48.1,63.3 0.2,40.8 0.2,79.3 0.2,115.4 0,36.1 0.5,1.4 1.4,1.4 h 44.5 c 1.6,0 2.8,-1.3 2.8,-2.9 V 729.7 c 0,-21.1 10.7,-30.1 31.2,-31.2 21.3,-1.1 38.1,6.8 38.4,30.3 0.4,29.4 0.4,63.1 0,101 0,3.4 0.2,6.8 0.6,10.2 0.2,1.2 1.2,2 2.3,2 h 44 c 0.9,0 1.5,-0.6 1.5,-1.5 0.7,-7.8 1,-15.5 0.9,-23.1 -0.4,-29.9 -0.3,-60.3 0.3,-91.1 0.3,-14.1 6.7,-22.7 19.3,-26 10.8,-2.8 21.4,-2.5 31.9,0.8 13.3,4.2 18,17.1 18.1,30.9 0.3,28.1 0.3,58.2 0,90.3 0,5.9 0.2,11.9 0.9,18 0,0.9 0.9,1.6 1.8,1.6 h 42.1 c 2.4,0 4.2,-1.8 4.2,-4.2 v 0 c -0.3,-40.5 -0.3,-78.2 0.2,-113.1 0.4,-34.9 -24,-58 -56.5,-65.1 -30.1,-6.6 -62.8,-2.7 -85.4,19.5 -0.9,0.8 -2.4,0.8 -3.2,0 v 0 z m 290.8,51 c 0,1.1 -0.6,1.5 -1.7,1.2 -34.6,-9 -99.2,-13.8 -112.7,31.5 -3.7,12.4 -4.4,26.2 -2,41.4 2.9,18.4 14.2,29.8 33.9,34.1 11.7,2.5 23.9,3.8 36.6,3.8 28.2,0 57,0 86.1,-0.2 2.2,0 4.5,-0.3 6.9,-0.9 0.8,-0.2 1.3,-0.7 1.5,-1.5 0.7,-3.4 1.1,-6.4 1.1,-9 -0.3,-33.5 -0.5,-67 -0.4,-100.5 0,-36 -13.3,-63 -51.5,-69.9 -29.8,-5.4 -61.9,-3.9 -96.4,4.5 -1,0.3 -1.7,1.1 -1.7,2.1 v 34.6 c 0,1 0.5,1.4 1.5,1.2 23.4,-4.1 48,-5.1 73.5,-3 17.9,1.4 26.3,11.6 25.2,30.5 h 0.1 z m 631.7,46.7 c 8.5,41.3 43.5,69 85.4,72.2 52.6,3.9 96.1,-24.9 105.6,-78.3 7,-39.2 -9.1,-79.6 -44.1,-100.1 -38.6,-22.5 -92.6,-17.3 -123.8,15.4 -23.2,24.3 -29.8,58.4 -23.1,90.9 v 0 z M 868.7,696.3 c -30.9,40.8 -23.2,107.7 19.5,137.3 34.5,23.9 84.2,25 119.3,-0.4 23,-16.7 35.7,-42.6 37.2,-71.1 0.7,-13.7 -0.6,-26.1 -4.2,-37.4 -15.4,-49.5 -66.1,-73.9 -115.9,-63.1 -23.7,5.1 -42.4,16.7 -56,34.7 v 0 z"
       id="path1" />
    <ellipse
       class="cls-2"
       cx="1293"
       cy="753.09998"
       rx="50.5"
       ry="54.700001"
       transform="rotate(-0.3,1296.7514,748.24343)"
       id="ellipse1" />
    <ellipse
       class="cls-2"
       cx="945.59998"
       cy="755.40002"
       rx="50.599998"
       ry="54.700001"
       transform="rotate(-0.3,952.97748,747.34343)"
       id="ellipse2" />
    <path
       class="cls-2"
       d="m 570.3,799.1 c 0,2.4 -2,4.3 -4.4,4.3 v 0 L 521.2,803 c -11.7,0 -21.1,-7.2 -21,-15.9 v 0 -5 c 0.1,-8.7 9.6,-15.6 21.3,-15.5 v 0 l 44.7,0.4 c 2.4,0 4.3,2 4.3,4.4 v 0 l -0.2,27.8 v 0 z"
       id="path2" />
  </g>
</svg>
