<svg version="1.1" viewBox="0 0 1500 1500" xmlns="http://www.w3.org/2000/svg">
 <rect width="1500" height="1500" fill="#10B990"/>
 <path d="m1075.7 164.52c-106.74-62.217-223.75-90.899-338.91-89.472-219.9 2.854-432.95 116.01-554.67 317.93l-4.4237 7.2776c-198.78 344.62-20.691 657.56 162.11 1002.3l11.13 20.691 1.9978 1.7123h22.118c180.23 0.7135 360.03-17.98 536.26-55.652 174.38-39.528 324.07-151.12 412.11-306.8 1.427-2.2832 2.7112-4.7091 3.8529-7.2777 175.09-314.65 61.075-712.07-251.29-890.73zm57.793 776.99v-0.28546c-38.386 71.349-109.74 118.87-190.36 127l-65.641 111.3-111.3-62.93c-20.691 8.7046-42.381 14.555-64.642 17.266-142.41 19.264-273.55-80.339-293.53-222.75l-108.59-62.359 62.93-111.3c-8.8473-20.977-14.983-42.952-17.837-65.641-18.836-142.27 80.625-272.98 222.75-292.96l62.359-108.02 111.31 62.359c21.548-8.99 44.094-15.126 67.354-17.837h0.8562c142.56-17.837 272.55 83.193 290.53 225.75l111.3 62.359-62.359 108.02c33.677 74.346 28.112 160.68-15.126 230.03z" fill="#fff"/>
</svg>
