<?xml version="1.0" encoding="UTF-8" standalone="no"?>
<svg
   version="1.1"
   viewBox="0 0 1500 1500"
   id="svg2"
   sodipodi:docname="Asset-11x-2.svg"
   inkscape:version="1.4 (86a8ad7, 2024-10-11)"
   inkscape:export-filename="Asset-11x-2.png"
   inkscape:export-xdpi="96"
   inkscape:export-ydpi="96"
   xmlns:inkscape="http://www.inkscape.org/namespaces/inkscape"
   xmlns:sodipodi="http://sodipodi.sourceforge.net/DTD/sodipodi-0.dtd"
   xmlns="http://www.w3.org/2000/svg"
   xmlns:svg="http://www.w3.org/2000/svg">
  <sodipodi:namedview
     id="namedview2"
     pagecolor="#ffffff"
     bordercolor="#000000"
     borderopacity="0.25"
     inkscape:showpageshadow="2"
     inkscape:pageopacity="0.0"
     inkscape:pagecheckerboard="0"
     inkscape:deskcolor="#d1d1d1"
     inkscape:zoom="0.26333333"
     inkscape:cx="750"
     inkscape:cy="750"
     inkscape:window-width="1366"
     inkscape:window-height="697"
     inkscape:window-x="-8"
     inkscape:window-y="-8"
     inkscape:window-maximized="1"
     inkscape:current-layer="svg2" />
  <defs
     id="defs1">
    <style
       id="style1">
      .cls-1 {
        fill: #fff;
      }

      .cls-2 {
        fill: #234d69;
      }
    </style>
  </defs>
  <!-- Generator: Adobe Illustrator 28.7.1, SVG Export Plug-In . SVG Version: 1.2.0 Build 142)  -->
  <rect
     id="Background"
     class="cls-2"
     width="1500"
     height="1500" />
  <g
     id="Content"
     transform="matrix(0.99785646,0,0,0.99785646,1.1586196,3.0545469)">
    <path
       class="cls-1"
       d="m 1014.4,900.6 c 30.3,-48.7 34.2,-109.3 10.6,-161.5 l 43.8,-75.9 -78.2,-43.8 C 978,519.3 886.7,448.4 786.6,460.9 c -0.2,0 -0.4,0 -0.6,0 -16.3,1.9 -32.2,6.2 -47.3,12.5 l -78.2,-43.8 -43.8,75.9 c -99.8,14 -169.6,105.8 -156.4,205.7 2,15.9 6.3,31.4 12.5,46.1 l -44.2,78.2 76.3,43.8 c 14,100 106.1,169.9 206.1,156.4 15.6,-1.9 30.9,-6 45.4,-12.1 l 78.2,44.2 46.1,-78.2 c 56.6,-5.7 106.7,-39.1 133.7,-89.2 v 0 z"
       id="path1" />
    <path
       class="cls-1"
       d="m 359.7,1425 413.4,-25 c 196.8,-11.6 377.8,-111.3 492.8,-271.4 l 133.5,-5 -63.9,-122.1 C 1408.2,829.3 1404,634.2 1323.8,465.3 L 1138.4,72.1 703.8,108.9 C 517.8,124.2 347,218.1 234.5,367 l -133,5.9 61.9,118.6 c -80.5,179.8 -75.7,386.2 13.3,562 m 289.8,185.3 -7.8,-14.5 C 330.4,982.2 205.3,762.4 344.9,520.4 l 3.1,-5.1 v 0 C 478.3,299.2 757.5,227.8 975.6,354.8 v 0 c 219.4,125.4 299.5,404.5 176.5,625.5 -0.8,1.8 -1.7,3.5 -2.7,5.1 -61.8,109.4 -166.9,187.7 -289.4,215.5 -123.8,26.5 -250,39.6 -376.6,39.1 h -15.5"
       id="path2" />
  </g>
</svg>
